<?xml version="1.0" encoding="utf-8"?>
<!-- Generator: Adobe Illustrator 24.3.0, SVG Export Plug-In . SVG Version: 6.00 Build 0)  -->
<svg version="1.1" id="Layer_1" xmlns="http://www.w3.org/2000/svg" xmlns:xlink="http://www.w3.org/1999/xlink" x="0px" y="0px"
	 viewBox="0 0 418.9 57.7" style="enable-background:new 0 0 418.9 57.7;" xml:space="preserve">
<style type="text/css">
	.st0{fill:#42210B;}
</style>
<path class="st0" d="M35.2,0.9c13.7,0,21.4,5.7,21.4,15.6c0,5.8-2.7,9.4-7.3,12c5.8,3.1,8.8,6.8,8.8,12.8c0,9.6-7.4,15.4-18.8,15.4
	H0V0.9H35.2z M24.7,23h0.7c5.4,0,7.3-1.6,7.3-5.5c0-3.8-2.4-5.4-6.5-5.4h-1.5V23z M24.7,44.5h1c5.3,0,7.6-1.6,7.6-5.8
	c0-4.3-2.3-6.3-6.9-6.3h-1.7V44.5z"/>
<path class="st0" d="M120.9,28.8c0,16.1-12.4,28.9-28.7,28.9c-16,0-28.6-12.8-28.6-28.9C63.6,12.9,75.9,0,92.2,0
	C108.4,0,120.9,12.8,120.9,28.8z M92.2,33.1c3.1,0,5.5-2.3,5.5-5.8c0-3.4-2.3-5.9-5.5-5.9c-3.2,0-5.5,2.5-5.5,5.9
	C86.7,30.8,89.2,33.1,92.2,33.1z"/>
<path class="st0" d="M184.9,28.8c0,16.1-12.4,28.9-28.7,28.9c-16,0-28.6-12.8-28.6-28.9c0-15.9,12.3-28.8,28.6-28.8
	C172.4,0,184.9,12.8,184.9,28.8z M156.3,33.1c3.1,0,5.5-2.3,5.5-5.8c0-3.4-2.3-5.9-5.5-5.9c-3.2,0-5.5,2.5-5.5,5.9
	C150.7,30.8,153.2,33.1,156.3,33.1z"/>
<path class="st0" d="M218.7,0.9v18.7c8-0.5,12.9-7,12.9-18.7h25.2c0,13.5-3.5,21.9-11,27.8c7.4,5.7,11.8,14.6,12.6,28h-26.7
	c-0.6-13.1-4.9-20.1-13-20.4v20.4h-24.7V0.9H218.7z"/>
<path class="st0" d="M290.7,0.9v41.8h21.7v14h-46.4V0.9H290.7z"/>
<path class="st0" d="M364.8,0.9v14h-21.7v6.9h15.1v14h-15.1v6.9h21.7v14h-46.4V0.9H364.8z"/>
<path class="st0" d="M418.9,0.9v24.7h-12.4v31.1h-24.7V25.6h-12.5V0.9H418.9z"/>
</svg>
