<?xml version="1.0" encoding="utf-8"?>
<!-- Generator: Adobe Illustrator 24.3.0, SVG Export Plug-In . SVG Version: 6.00 Build 0)  -->
<svg version="1.1" id="Layer_1" xmlns="http://www.w3.org/2000/svg" xmlns:xlink="http://www.w3.org/1999/xlink" x="0px" y="0px"
	 viewBox="0 0 211.7 16.1" style="enable-background:new 0 0 211.7 16.1;" xml:space="preserve">
<style type="text/css">
	.st0{fill:#42210B;}
</style>
<path class="st0" d="M13,0.3v3.9H6.9v1.9h4.2V10H6.9V12H13v3.9H0V0.3H13z"/>
<path class="st0" d="M23.4,0.3c5.7,0,8.6,3.8,8.6,7.9c0,3.4-2.2,7.8-8.8,7.8h-7.6V0.3H23.4z M22.5,9.9h0.2C24.3,9.9,25,9.4,25,8
	c0-1.2-0.7-1.8-2.1-1.8h-0.4V9.9z"/>
<path class="st0" d="M41.1,0.3v15.6h-6.9V0.3H41.1z"/>
<path class="st0" d="M56.9,0.3v6.9h-3.5v8.7h-6.9V7.2H43V0.3H56.9z"/>
<path class="st0" d="M65.8,0.3v15.6h-6.9V0.3H65.8z"/>
<path class="st0" d="M73.8,0.3l3.6,5.2h0V0.3h6.9V16h-5.2l-3.3-4.9h0v4.7h-6.9V0.3H73.8z"/>
<path class="st0" d="M103.3,2.1l-3.3,4.7c-1.4-0.7-2.7-1-3.9-1c-1.6,0-2.6,0.9-2.6,2.2c0,1.3,0.8,1.9,2.5,1.9V7.5h6.9v8.4
	c-2.2,0.1-4.9,0.2-5.7,0.2c-2.2,0-4.1-0.3-5.5-0.8C88.9,14.2,87,11.4,87,8c0-3.9,2.5-8,8.7-8C98.1,0,100.9,0.7,103.3,2.1z"/>
<path class="st0" d="M119.4,0.3v15.6h-6.9V0.3H119.4z"/>
<path class="st0" d="M129.1,0.3l2.8,3.3l2.8-3.3h6.7v15.6h-6.9V8.1l-2.6,3l-2.6-3v7.8h-6.9V0.3H129.1z"/>
<path class="st0" d="M158.3,0.3l5.4,15.6h-6.9l-0.9-2.6h-5.1l-0.9,2.6H143l5.4-15.6H158.3z M152.1,9.6h2.6l-1.3-3.8h0L152.1,9.6z"/>
<path class="st0" d="M180.7,2.1l-3.3,4.7c-1.4-0.7-2.7-1-3.9-1c-1.6,0-2.6,0.9-2.6,2.2c0,1.3,0.8,1.9,2.5,1.9V7.5h6.9v8.4
	c-2.2,0.1-4.9,0.2-5.7,0.2c-2.2,0-4.1-0.3-5.5-0.8c-2.8-1.1-4.7-3.9-4.7-7.3c0-3.9,2.5-8,8.7-8C175.6,0,178.3,0.7,180.7,2.1z"/>
<path class="st0" d="M196.2,0.3v3.9h-6.1v1.9h4.2V10h-4.2V12h6.1v3.9h-13V0.3H196.2z"/>
<path class="st0" d="M211.4,1L209.7,6c-1.1-1.5-2.5-2.3-3.9-2.3c-0.9,0-1.2,0.4-1.2,0.9c0,0.6,1.2,1,2.4,1.5c1.3,0.5,2.8,1.1,3.7,2
	c0.6,0.7,1,1.6,1,2.8c0,3.3-2.5,5.1-7.5,5.1c-2.6,0-4.9-0.3-7.2-1.2l1.7-5.2c0.9,1.5,2.6,2.5,3.9,2.5c0.7,0,1.2-0.4,1.2-0.9
	c0-1.9-6.1-1.4-6.1-6.1c0-3.4,2.5-5.2,7.5-5.2C207.3,0,209.8,0.4,211.4,1z"/>
</svg>
