<?xml version="1.0" encoding="utf-8"?>
<!-- Generator: Adobe Illustrator 24.3.0, SVG Export Plug-In . SVG Version: 6.00 Build 0)  -->
<svg version="1.1" id="Layer_1" xmlns="http://www.w3.org/2000/svg" xmlns:xlink="http://www.w3.org/1999/xlink" x="0px" y="0px"
	 viewBox="0 0 163.8 15.8" style="enable-background:new 0 0 163.8 15.8;" xml:space="preserve">
<style type="text/css">
	.st0{fill:#42210B;}
</style>
<path class="st0" d="M6.9,0v15.6H0V0H6.9z"/>
<path class="st0" d="M15,0l3.6,5.2h0V0h6.9v15.8h-5.2L17,10.9h0v4.7H10V0H15z"/>
<path class="st0" d="M48.3,0v6.9h-3.5v8.7h-6.9V6.9h-3.5V0H48.3z"/>
<path class="st0" d="M57.1,0v5.7h3.5V0h6.9v15.6h-6.9V9.8h-3.5v5.8h-6.9V0H57.1z"/>
<path class="st0" d="M83.6,0v3.9h-6.1v1.9h4.2v3.9h-4.2v1.9h6.1v3.9h-13V0H83.6z"/>
<path class="st0" d="M105.6,0v3.9h-5.9v2.8h4.4v3.9h-4.4v5h-6.9V0H105.6z"/>
<path class="st0" d="M114.1,0v15.6h-6.9V0H114.1z"/>
<path class="st0" d="M130.2,0v3.9h-6.1v1.9h4.2v3.9h-4.2v1.9h6.1v3.9h-13V0H130.2z"/>
<path class="st0" d="M139.6,0v11.7h6.1v3.9h-13V0H139.6z"/>
<path class="st0" d="M155.2,0c5.7,0,8.6,3.8,8.6,7.9c0,3.4-2.2,7.8-8.8,7.8h-7.6V0H155.2z M154.3,9.7h0.2c1.6,0,2.4-0.5,2.4-1.9
	c0-1.2-0.7-1.8-2.1-1.8h-0.4V9.7z"/>
</svg>
