<?xml version="1.0" encoding="utf-8"?>
<!-- Generator: Adobe Illustrator 24.3.0, SVG Export Plug-In . SVG Version: 6.00 Build 0)  -->
<svg version="1.1" id="Layer_1" xmlns="http://www.w3.org/2000/svg" xmlns:xlink="http://www.w3.org/1999/xlink" x="0px" y="0px"
	 viewBox="0 0 245.7 79.5" style="enable-background:new 0 0 245.7 79.5;" xml:space="preserve">
<style type="text/css">
	.st0{fill:#DBC069;}
	.st1{enable-background:new    ;}
	.st2{fill:none;stroke:#3C2415;stroke-width:1.5012;stroke-miterlimit:10.008;}
</style>
<path class="st0" d="M39.2,60.2c-2.3,0-4.1,0.9-4.1,1.9c0,1.1-1.7,1.9-3.8,1.9c-2.1,0-3.8-0.8-3.8-1.9c0-1-1.8-1.9-4-1.9H12.2
	c-4.2,0-7.6-1.7-7.6-3.8c0-2.1,3.4-3.8,7.6-3.8h7.6c4.2,0,7.6-3.4,7.6-7.6V29.8c0-4.2-3.4-7.6-7.6-7.6H16c-4.2,0-7.6-1.8-7.6-3.8
	c0-2.1,3.4-3.8,7.6-3.8h7.4c2.2,0,4-0.9,4-2c0-1,1.8-1.9,3.8-1.9c2.1,0,3.8,0.9,3.8,1.9c0,1.1,1.8,2,4.1,2h7.3
	c4.2,0,7.6,1.7,7.6,3.8c0,2.1-3.4,3.8-7.6,3.8h-3.8c-4.2,0-7.6,3.4-7.6,7.6V45c0,4.2,3.4,7.6,7.6,7.6h7.6c4.2,0,7.6,1.8,7.6,3.8
	c0,2.1-3.4,3.8-7.6,3.8H39.2z M9.2,44.1c-1.4-1.4-1-4.3,2.1-7.4c3.3-3.3,6.2-3.7,7.7-2.3c1.5,1.4,1,4.4-2.1,7.5
	C13.6,45.1,10.7,45.6,9.2,44.1z M43.6,34.4c1.5-1.4,4.4-1,7.7,2.3c3.1,3,3.5,5.9,2.1,7.4c-1.5,1.5-4.4,1.1-7.7-2.2
	C42.6,38.8,42,35.8,43.6,34.4z"/>
<path class="st0" d="M68.7,29.2c-1.7,0-2.8-1.3-2.8-2.7c0-2.3,1.4-4.8,6.3-8.3c2.8-2.1,5-2.8,6.6-2.8c1.4,0,2.3,1,2.3,2.5
	c0,2.5-2.2,5.6-6,8.3C72.9,27.7,70.2,29.2,68.7,29.2z M68.7,46c-1.7,0-2.8-1.1-2.8-2.6c0-2.4,1.4-4.8,6.3-8.2c2.8-2.1,5-2.9,6.6-2.9
	c1.4,0,2.3,1,2.3,2.6c0,2.4-2.2,5.5-6,8.2C72.9,44.7,70.2,46,68.7,46z M119,56.4c0,3.8-3.4,7.2-7.6,7.2H80.7c-4.2,0-7.3-1.4-7.6-5.9
	c-0.3-5,1.8-7.4,3.7-7.4c2.1,0,3.4,0.6,3.8,2.5c0.5,1.8,1.5,3.2,5.6,3.2h15.9c6.5,0,9.3-3.1,9.3-8.5v-2.4c0-4.2-3.4-7.6-7.6-7.6
	h-3.5c-2.3,0-3.7,0.7-4.1,1.9c-0.4,1.1-1.7,1.8-3.8,1.8c-2.1,0-3.8-3.4-3.8-7.6V18.3c0-4.2,3.4-7.6,7.6-7.6h11.4
	c4.2,0,7.6,1.8,7.6,3.8c0,2.1-3.4,3.8-7.6,3.8h-3.8c-4.2,0-7.6,2.7-7.6,5.8c0,3.2,3.4,5.8,7.6,5.8h7.6c4.2,0,7.6,3.4,7.6,7.6V56.4z"
	/>
<path class="st0" d="M172.4,29.9c-2.5,0-4.9,0.5-5.6,1.4c-0.2,0.1-0.8,0.8-0.8,1.1c-0.2,1.1,0.3,1.2,2.5,1.2c2.1,0,4,1.8,4,3.8
	c0,2.1-2.4,3.8-5.3,3.8c-3,0-6.6,7.5-8,11.4l-3.1,8.5c-1.4,4-3.8,4-5.2,0l-11.4-31.4c-1.5-3.9-4.9-11.4-7.6-11.4
	c-2.8,0-5.1-1.8-5.1-3.8s3.4-3.8,7.6-3.8h7.6c4.2,0,7.6,1.8,7.6,3.8s-1,3.8-2.3,3.8s-1.1,7.5,0.3,11.4l3.3,8.8c1.4,3.9,3.8,4,5.2,0
	l3.3-9.1c1.4-4,6-7.2,10.2-7.2h0.6c4.2,0,7.6,1.7,7.6,3.8C177.7,28.2,175.3,29.9,172.4,29.9z M172.4,18.4h-7.6
	c-4.2,0-7.6-1.7-7.6-3.8c0-2.1,3.4-3.8,7.6-3.8h7.6c4.2,0,7.6,1.8,7.6,3.8C180.1,16.8,176.6,18.4,172.4,18.4z"/>
<path class="st0" d="M187.8,16.6c0-1.4,0.8-2.2,2.3-2.2c1.6,0,3.7,0.6,6.6,2.5c4.9,3.2,6.3,5.4,6.3,7.5c0,1.2-1.1,2.4-2.8,2.4
	c-1.5,0-4.3-1.4-6.3-2.7C190,21.7,187.8,18.9,187.8,16.6z M187.8,33.3c0-1.4,0.8-2.3,2.3-2.3c1.6,0,3.7,0.7,6.6,2.6
	c4.9,3.1,6.3,5.3,6.3,7.5c0,1.3-1.1,2.4-2.8,2.4c-1.5,0-4.3-1.3-6.3-2.7C190,38.3,187.8,35.5,187.8,33.3z M187.8,50.2
	c0-1.4,0.8-2.4,2.3-2.4c1.6,0,3.7,0.7,6.6,2.6c4.9,3.1,6.3,5.3,6.3,7.6c0,1.1-1.1,2.2-2.8,2.2c-1.5,0-4.3-1.3-6.3-2.6
	C190,55.2,187.8,52.4,187.8,50.2z M222,48.5c-1.1-1.9-3.4-3.5-4.8-3.5c-1.5,0-2.7,1.8-2.7,4v7.4c0,4.2-1.7,7.6-3.8,7.6
	c-2.1,0-3.8-3.4-3.8-7.6V18.3c0-4.2,3.4-7.6,7.6-7.6h19.9c4.2,0,7.2,3.4,6.7,7.5l-2.1,19.2c-0.5,4.5-2.7,7.5-5.6,7.5
	c-2.4,0-3,0.9-3,1.9c0,0.5,0.4,1.4,2.5,4.9c2.2,3.6,2.5,7.4,0.7,8.5c-1.8,1.1-5-1-7.2-4.6L222,48.5z M222,18.3
	c-4.2,0-7.6,3.4-7.6,7.6v3.8c0,4.2,3.4,7.6,7.6,7.6h1.6c4.2,0,8-3.4,8.5-7.5l0.5-4c0.5-4.1-2.6-7.5-6.8-7.5H222z"/>
<g class="st1">
	<path class="st2" d="M39.2,60.2c-2.3,0-4.1,0.9-4.1,1.9c0,1.1-1.7,1.9-3.8,1.9c-2.1,0-3.8-0.8-3.8-1.9c0-1-1.8-1.9-4-1.9H12.2
		c-4.2,0-7.6-1.7-7.6-3.8c0-2.1,3.4-3.8,7.6-3.8h7.6c4.2,0,7.6-3.4,7.6-7.6V29.8c0-4.2-3.4-7.6-7.6-7.6H16c-4.2,0-7.6-1.8-7.6-3.8
		c0-2.1,3.4-3.8,7.6-3.8h7.4c2.2,0,4-0.9,4-2c0-1,1.8-1.9,3.8-1.9c2.1,0,3.8,0.9,3.8,1.9c0,1.1,1.8,2,4.1,2h7.3
		c4.2,0,7.6,1.7,7.6,3.8c0,2.1-3.4,3.8-7.6,3.8h-3.8c-4.2,0-7.6,3.4-7.6,7.6V45c0,4.2,3.4,7.6,7.6,7.6h7.6c4.2,0,7.6,1.8,7.6,3.8
		c0,2.1-3.4,3.8-7.6,3.8H39.2z M9.2,44.1c-1.4-1.4-1-4.3,2.1-7.4c3.3-3.3,6.2-3.7,7.7-2.3c1.5,1.4,1,4.4-2.1,7.5
		C13.6,45.1,10.7,45.6,9.2,44.1z M43.6,34.4c1.5-1.4,4.4-1,7.7,2.3c3.1,3,3.5,5.9,2.1,7.4c-1.5,1.5-4.4,1.1-7.7-2.2
		C42.6,38.8,42,35.8,43.6,34.4z"/>
	<path class="st2" d="M68.7,29.2c-1.7,0-2.8-1.3-2.8-2.7c0-2.3,1.4-4.8,6.3-8.3c2.8-2.1,5-2.8,6.6-2.8c1.4,0,2.3,1,2.3,2.5
		c0,2.5-2.2,5.6-6,8.3C72.9,27.7,70.2,29.2,68.7,29.2z M68.7,46c-1.7,0-2.8-1.1-2.8-2.6c0-2.4,1.4-4.8,6.3-8.2
		c2.8-2.1,5-2.9,6.6-2.9c1.4,0,2.3,1,2.3,2.6c0,2.4-2.2,5.5-6,8.2C72.9,44.7,70.2,46,68.7,46z M119,56.4c0,3.8-3.4,7.2-7.6,7.2H80.7
		c-4.2,0-7.3-1.4-7.6-5.9c-0.3-5,1.8-7.4,3.7-7.4c2.1,0,3.4,0.6,3.8,2.5c0.5,1.8,1.5,3.2,5.6,3.2h15.9c6.5,0,9.3-3.1,9.3-8.5v-2.4
		c0-4.2-3.4-7.6-7.6-7.6h-3.5c-2.3,0-3.7,0.7-4.1,1.9c-0.4,1.1-1.7,1.8-3.8,1.8c-2.1,0-3.8-3.4-3.8-7.6V18.3c0-4.2,3.4-7.6,7.6-7.6
		h11.4c4.2,0,7.6,1.8,7.6,3.8c0,2.1-3.4,3.8-7.6,3.8h-3.8c-4.2,0-7.6,2.7-7.6,5.8c0,3.2,3.4,5.8,7.6,5.8h7.6c4.2,0,7.6,3.4,7.6,7.6
		V56.4z"/>
	<path class="st2" d="M172.4,29.9c-2.5,0-4.9,0.5-5.6,1.4c-0.2,0.1-0.8,0.8-0.8,1.1c-0.2,1.1,0.3,1.2,2.5,1.2c2.1,0,4,1.8,4,3.8
		c0,2.1-2.4,3.8-5.3,3.8c-3,0-6.6,7.5-8,11.4l-3.1,8.5c-1.4,4-3.8,4-5.2,0l-11.4-31.4c-1.5-3.9-4.9-11.4-7.6-11.4
		c-2.8,0-5.1-1.8-5.1-3.8s3.4-3.8,7.6-3.8h7.6c4.2,0,7.6,1.8,7.6,3.8s-1,3.8-2.3,3.8s-1.1,7.5,0.3,11.4l3.3,8.8c1.4,3.9,3.8,4,5.2,0
		l3.3-9.1c1.4-4,6-7.2,10.2-7.2h0.6c4.2,0,7.6,1.7,7.6,3.8C177.7,28.2,175.3,29.9,172.4,29.9z M172.4,18.4h-7.6
		c-4.2,0-7.6-1.7-7.6-3.8c0-2.1,3.4-3.8,7.6-3.8h7.6c4.2,0,7.6,1.8,7.6,3.8C180.1,16.8,176.6,18.4,172.4,18.4z"/>
	<path class="st2" d="M187.8,16.6c0-1.4,0.8-2.2,2.3-2.2c1.6,0,3.7,0.6,6.6,2.5c4.9,3.2,6.3,5.4,6.3,7.5c0,1.2-1.1,2.4-2.8,2.4
		c-1.5,0-4.3-1.4-6.3-2.7C190,21.7,187.8,18.9,187.8,16.6z M187.8,33.3c0-1.4,0.8-2.3,2.3-2.3c1.6,0,3.7,0.7,6.6,2.6
		c4.9,3.1,6.3,5.3,6.3,7.5c0,1.3-1.1,2.4-2.8,2.4c-1.5,0-4.3-1.3-6.3-2.7C190,38.3,187.8,35.5,187.8,33.3z M187.8,50.2
		c0-1.4,0.8-2.4,2.3-2.4c1.6,0,3.7,0.7,6.6,2.6c4.9,3.1,6.3,5.3,6.3,7.6c0,1.1-1.1,2.2-2.8,2.2c-1.5,0-4.3-1.3-6.3-2.6
		C190,55.2,187.8,52.4,187.8,50.2z M222,48.5c-1.1-1.9-3.4-3.5-4.8-3.5c-1.5,0-2.7,1.8-2.7,4v7.4c0,4.2-1.7,7.6-3.8,7.6
		c-2.1,0-3.8-3.4-3.8-7.6V18.3c0-4.2,3.4-7.6,7.6-7.6h19.9c4.2,0,7.2,3.4,6.7,7.5l-2.1,19.2c-0.5,4.5-2.7,7.5-5.6,7.5
		c-2.4,0-3,0.9-3,1.9c0,0.5,0.4,1.4,2.5,4.9c2.2,3.6,2.5,7.4,0.7,8.5c-1.8,1.1-5-1-7.2-4.6L222,48.5z M222,18.3
		c-4.2,0-7.6,3.4-7.6,7.6v3.8c0,4.2,3.4,7.6,7.6,7.6h1.6c4.2,0,8-3.4,8.5-7.5l0.5-4c0.5-4.1-2.6-7.5-6.8-7.5H222z"/>
</g>
</svg>
