<?xml version="1.0" encoding="utf-8"?>
<!-- Generator: Adobe Illustrator 24.3.0, SVG Export Plug-In . SVG Version: 6.00 Build 0)  -->
<svg version="1.1" id="Layer_1" xmlns="http://www.w3.org/2000/svg" xmlns:xlink="http://www.w3.org/1999/xlink" x="0px" y="0px"
	 viewBox="0 0 65.5 16.1" style="enable-background:new 0 0 65.5 16.1;" xml:space="preserve">
<style type="text/css">
	.st0{fill:#42210B;}
</style>
<path class="st0" d="M6.9,0.3V12H13v3.9H0V0.3H6.9z"/>
<path class="st0" d="M29.6,8.1c0,4.5-3.5,8.1-8,8.1c-4.5,0-8-3.6-8-8.1c0-4.5,3.4-8.1,8-8.1C26.1,0,29.6,3.6,29.6,8.1z M21.6,9.3
	c0.9,0,1.6-0.7,1.6-1.6c0-0.9-0.7-1.6-1.6-1.6S20,6.7,20,7.6C20,8.6,20.7,9.3,21.6,9.3z"/>
<path class="st0" d="M47.9,2.1l-3.3,4.7c-1.4-0.7-2.7-1-3.9-1c-1.6,0-2.6,0.9-2.6,2.2c0,1.3,0.8,1.9,2.5,1.9V7.5h6.9v8.4
	c-2.2,0.1-4.9,0.2-5.7,0.2c-2.2,0-4.1-0.3-5.5-0.8c-2.8-1.1-4.7-3.9-4.7-7.3c0-3.9,2.5-8,8.7-8C42.8,0,45.5,0.7,47.9,2.1z"/>
<path class="st0" d="M65.5,8.1c0,4.5-3.5,8.1-8,8.1c-4.5,0-8-3.6-8-8.1c0-4.5,3.4-8.1,8-8.1C62,0,65.5,3.6,65.5,8.1z M57.5,9.3
	c0.9,0,1.6-0.7,1.6-1.6C59,6.7,58.4,6,57.5,6c-0.9,0-1.6,0.7-1.6,1.6C55.9,8.6,56.6,9.3,57.5,9.3z"/>
</svg>
