<?xml version="1.0" encoding="utf-8"?>
<!-- Generator: Adobe Illustrator 24.3.0, SVG Export Plug-In . SVG Version: 6.00 Build 0)  -->
<svg version="1.1" id="Layer_1" xmlns="http://www.w3.org/2000/svg" xmlns:xlink="http://www.w3.org/1999/xlink" x="0px" y="0px"
	 viewBox="0 0 195.9 10" style="enable-background:new 0 0 195.9 10;" xml:space="preserve">
<style type="text/css">
	.st0{fill:#42210B;}
</style>
<path class="st0" d="M4.3,0.2v9.7H0V0.2H4.3z"/>
<path class="st0" d="M14.3,0.7l-1.1,3.1c-0.7-0.9-1.5-1.4-2.4-1.4c-0.5,0-0.8,0.2-0.8,0.6c0,0.4,0.7,0.6,1.5,0.9
	c0.8,0.3,1.8,0.7,2.3,1.2c0.4,0.4,0.6,1,0.6,1.8c0,2.1-1.6,3.2-4.7,3.2c-1.6,0-3-0.2-4.4-0.7L6.5,6C7,7,8,7.6,8.9,7.6
	c0.4,0,0.7-0.2,0.7-0.5c0-1.2-3.8-0.8-3.8-3.8C5.8,1.1,7.4,0,10.4,0C11.8,0,13.4,0.3,14.3,0.7z"/>
<path class="st0" d="M24.2,0.2l3.4,9.7h-4.3l-0.6-1.6h-3.1L19,9.8h-4.3l3.4-9.7H24.2z M20.4,5.9H22l-0.8-2.4h0L20.4,5.9z"/>
<path class="st0" d="M34.6,0.2c2.4,0,3.7,1,3.7,2.7c0,1-0.5,1.6-1.3,2.1c1,0.5,1.5,1.2,1.5,2.2c0,1.7-1.3,2.7-3.3,2.7h-6.8V0.2H34.6
	z M32.8,4h0.1c0.9,0,1.3-0.3,1.3-0.9c0-0.7-0.4-0.9-1.1-0.9h-0.3V4z M32.8,7.7H33c0.9,0,1.3-0.3,1.3-1c0-0.7-0.4-1.1-1.2-1.1h-0.3
	V7.7z"/>
<path class="st0" d="M48,0.2v2.4h-3.8v1.2h2.6v2.4h-2.6v1.2H48v2.4h-8V0.2H48z"/>
<path class="st0" d="M53.8,0.2v7.3h3.8v2.4h-8V0.2H53.8z"/>
<path class="st0" d="M62.9,0.2v7.3h3.8v2.4h-8V0.2H62.9z"/>
<path class="st0" d="M76.2,0.2l3.4,9.7h-4.3l-0.6-1.6h-3.1L71,9.8h-4.3l3.4-9.7H76.2z M72.4,5.9H74l-0.8-2.4h0L72.4,5.9z"/>
<path class="st0" d="M88.3,0.2l1.1,4.1h0l1.1-4.1h4.3l-3.3,9.7h-4.2L84,0.2H88.3z"/>
<path class="st0" d="M103.5,0.2l3.4,9.7h-4.3l-0.6-1.6h-3.1l-0.6,1.6h-4.3l3.4-9.7H103.5z M99.7,5.9h1.6l-0.8-2.4h0L99.7,5.9z"/>
<path class="st0" d="M110.9,0.2l2.2,3.2h0V0.2h4.3v9.8h-3.2l-2.1-3h0v2.9h-4.3V0.2H110.9z"/>
<path class="st0" d="M130.1,0.2c2.3,0,3.5,1.3,3.5,2.9c0,0.9-0.4,1.6-1.1,2.1c1,1.2,1.7,2.8,1.9,4.6h-4.4c-0.2-2.5-0.7-3.6-1.9-3.6
	h0v3.6h-4.3V0.2H130.1z M128,4h0.1c0.8,0,1.2-0.3,1.2-0.9c0-0.6-0.4-1-1-1H128V4z"/>
<path class="st0" d="M143.9,0.2l3.4,9.7H143l-0.6-1.6h-3.1l-0.6,1.6h-4.3l3.4-9.7H143.9z M140.1,5.9h1.6l-0.8-2.4h0L140.1,5.9z"/>
<path class="st0" d="M151.3,0.2l2.2,3.2h0V0.2h4.3v9.8h-3.2l-2.1-3h0v2.9h-4.3V0.2H151.3z"/>
<path class="st0" d="M169.4,0.2l-4.5,7.3h4.2v2.4H159l4.5-7.3h-4.1V0.2H169.4z"/>
<path class="st0" d="M179.8,5c0,2.8-2.2,5-5,5c-2.8,0-5-2.2-5-5c0-2.8,2.1-5,5-5C177.6,0,179.8,2.2,179.8,5z M174.8,5.7
	c0.5,0,1-0.4,1-1c0-0.6-0.4-1-1-1c-0.6,0-1,0.4-1,1C173.9,5.3,174.3,5.7,174.8,5.7z"/>
<path class="st0" d="M184.2,0.2l1.1,3.5l1.2-3.5h3l1.2,3.5l1.1-3.5h4.2l-3.3,9.7h-3.2L188,5.7l-1.4,4.2h-3.2L180,0.2H184.2z"/>
</svg>
