<?xml version="1.0" encoding="utf-8"?>
<!-- Generator: Adobe Illustrator 24.3.0, SVG Export Plug-In . SVG Version: 6.00 Build 0)  -->
<svg version="1.1" id="Layer_1" xmlns="http://www.w3.org/2000/svg" xmlns:xlink="http://www.w3.org/1999/xlink" x="0px" y="0px"
	 viewBox="0 0 97.6 16.1" style="enable-background:new 0 0 97.6 16.1;" xml:space="preserve">
<style type="text/css">
	.st0{fill:#42210B;}
</style>
<path class="st0" d="M10.5,10.8c-1.2,0-2.2-0.4-3.6-1.4v6.4H0V0.3h9.5c4.5,0,6.2,2.8,6.2,5.3C15.7,8.4,13.4,10.8,10.5,10.8z M6.9,7
	c0.2,0.1,0.4,0.1,0.6,0.1c1,0,1.7-0.7,1.7-1.8c0-1.1-0.6-1.7-1.6-1.7H6.9V7z"/>
<path class="st0" d="M32.9,8.1c0,4.5-3.5,8.1-8,8.1c-4.5,0-8-3.6-8-8.1c0-4.5,3.4-8.1,8-8.1C29.4,0,32.9,3.6,32.9,8.1z M24.9,9.3
	c0.9,0,1.6-0.7,1.6-1.6c0-0.9-0.7-1.6-1.6-1.6s-1.6,0.7-1.6,1.6C23.3,8.6,24,9.3,24.9,9.3z"/>
<path class="st0" d="M48.1,1L46.4,6c-1.1-1.5-2.5-2.3-3.9-2.3c-0.9,0-1.2,0.4-1.2,0.9c0,0.6,1.2,1,2.4,1.5c1.3,0.5,2.8,1.1,3.7,2
	c0.6,0.7,1,1.6,1,2.8c0,3.3-2.5,5.1-7.5,5.1c-2.6,0-4.9-0.3-7.2-1.2l1.7-5.2c0.9,1.5,2.6,2.5,3.9,2.5c0.7,0,1.2-0.4,1.2-0.9
	c0-1.9-6.1-1.4-6.1-6.1c0-3.4,2.5-5.2,7.5-5.2C44,0,46.5,0.4,48.1,1z"/>
<path class="st0" d="M63,0.3v6.9h-3.5v8.7h-6.9V7.2h-3.5V0.3H63z"/>
<path class="st0" d="M77.9,0.3v3.9h-6.1v1.9h4.2V10h-4.2V12h6.1v3.9h-13V0.3H77.9z"/>
<path class="st0" d="M90.7,0.3c3.7,0,5.6,2.1,5.6,4.7c0,1.4-0.6,2.6-1.8,3.5c1.7,1.9,2.7,4.5,3,7.5h-7.2c-0.3-4.1-1.2-5.8-3-5.8h0
	v5.8h-6.9V0.3H90.7z M87.4,6.5h0.2c1.3,0,1.9-0.5,1.9-1.5c0-0.9-0.6-1.6-1.6-1.6h-0.4V6.5z"/>
</svg>
