<?xml version="1.0" encoding="utf-8"?>
<!-- Generator: Adobe Illustrator 24.3.0, SVG Export Plug-In . SVG Version: 6.00 Build 0)  -->
<svg version="1.1" id="Layer_1" xmlns="http://www.w3.org/2000/svg" xmlns:xlink="http://www.w3.org/1999/xlink" x="0px" y="0px"
	 viewBox="0 0 503.8 15.4" style="enable-background:new 0 0 503.8 15.4;" xml:space="preserve">
<style type="text/css">
	.st0{fill:#42210B;}
</style>
<path class="st0" d="M9.8,0.2c3.5,0,5.4,2,5.4,4.5c0,1.4-0.6,2.5-1.7,3.3c1.6,1.8,2.6,4.3,2.9,7.1H9.5c-0.3-3.9-1.1-5.5-2.9-5.5h0
	v5.5H0V0.2H9.8z M6.6,6.2h0.2c1.2,0,1.8-0.4,1.8-1.4C8.6,3.9,8,3.3,7,3.3H6.6V6.2z"/>
<path class="st0" d="M30.3,0.2V4h-5.8v1.8h4v3.7h-4v1.8h5.8v3.7H17.9V0.2H30.3z"/>
<path class="st0" d="M39.8,0.2c5.4,0,8.2,3.6,8.2,7.5c0,3.2-2.1,7.4-8.3,7.4h-7.3V0.2H39.8z M38.9,9.4h0.2c1.6,0,2.2-0.5,2.2-1.8
	c0-1.1-0.7-1.7-2-1.7h-0.4V9.4z"/>
<path class="st0" d="M64.6,0.2v7.1c0,5.2-2.3,8.1-7.4,8.1c-4.7,0-7.4-2.6-7.4-8V0.2h6.6v7c0,1,0.2,1.6,0.8,1.6
	c0.6,0,0.8-0.4,0.8-1.6v-7H64.6z"/>
<path class="st0" d="M81.2,1.6l-2.8,5.3c-0.8-0.3-1.7-0.4-2.7-0.4c-1.4,0-2.1,0.4-2.1,1.1s0.8,1.2,2.3,1.2c0.9,0,1.8-0.2,2.5-0.5
	l2.8,5.6c-1.5,0.9-4,1.5-6,1.5c-5.2,0-8.3-3.5-8.3-7.6c0-4.7,3.7-7.8,8.3-7.8C77.4,0,79.8,0.7,81.2,1.6z"/>
<path class="st0" d="M95.3,0.2V4h-5.8v1.8h4v3.7h-4v1.8h5.8v3.7H82.9V0.2H95.3z"/>
<path class="st0" d="M109.3,0.2l2.3,4l2.3-4h6.7l-5.7,8.4v6.5h-6.6V8.6l-5.7-8.4H109.3z"/>
<path class="st0" d="M136.8,7.7c0,4.3-3.3,7.7-7.7,7.7c-4.3,0-7.6-3.4-7.6-7.7c0-4.2,3.3-7.7,7.6-7.7C133.5,0,136.8,3.4,136.8,7.7z
	 M129.2,8.8c0.8,0,1.5-0.6,1.5-1.6c0-0.9-0.6-1.6-1.5-1.6c-0.9,0-1.5,0.7-1.5,1.6C127.7,8.2,128.3,8.8,129.2,8.8z"/>
<path class="st0" d="M153.8,0.2v7.1c0,5.2-2.3,8.1-7.4,8.1c-4.7,0-7.4-2.6-7.4-8V0.2h6.6v7c0,1,0.2,1.6,0.8,1.6
	c0.6,0,0.8-0.4,0.8-1.6v-7H153.8z"/>
<path class="st0" d="M166.2,0.2c3.5,0,5.4,2,5.4,4.5c0,1.4-0.6,2.5-1.7,3.3c1.6,1.8,2.6,4.3,2.9,7.1H166c-0.3-3.9-1.1-5.5-2.9-5.5h0
	v5.5h-6.6V0.2H166.2z M163.1,6.2h0.2c1.2,0,1.8-0.4,1.8-1.4c0-0.9-0.5-1.5-1.5-1.5h-0.4V6.2z"/>
<path class="st0" d="M186,0.2l1.7,5.4l1.8-5.4h4.6l1.9,5.4l1.6-5.4h6.4l-5,14.9h-4.9l-2.4-6.4l-2.2,6.4h-4.9l-5.3-14.9H186z"/>
<path class="st0" d="M218.8,0.2l5.2,14.9h-6.6l-0.9-2.5h-4.8l-0.9,2.5h-6.6l5.2-14.9H218.8z M212.8,9.1h2.4l-1.2-3.6h0L212.8,9.1z"
	/>
<path class="st0" d="M237.9,1l-1.6,4.7c-1-1.4-2.3-2.2-3.7-2.2c-0.8,0-1.2,0.4-1.2,0.9c0,0.6,1.1,1,2.3,1.5c1.3,0.5,2.7,1.1,3.5,1.9
	c0.6,0.6,1,1.5,1,2.7c0,3.2-2.4,4.9-7.2,4.9c-2.5,0-4.7-0.3-6.8-1.1l1.6-5c0.9,1.4,2.4,2.4,3.7,2.4c0.6,0,1.1-0.4,1.1-0.8
	c0-1.8-5.8-1.3-5.8-5.8c0-3.3,2.4-5,7.1-5C234,0,236.4,0.4,237.9,1z"/>
<path class="st0" d="M252.1,0.2v6.6h-3.3v8.3h-6.6V6.8h-3.3V0.2H252.1z"/>
<path class="st0" d="M266.3,0.2V4h-5.8v1.8h4v3.7h-4v1.8h5.8v3.7H254V0.2H266.3z"/>
<path class="st0" d="M281.1,7.2v4.2h-6.9V7.2H281.1z"/>
<path class="st0" d="M303.2,0.2v11.2h5.8v3.7h-12.4V0.2H303.2z"/>
<path class="st0" d="M323,0.2V4h-5.8v1.8h4v3.7h-4v1.8h5.8v3.7h-12.4V0.2H323z"/>
<path class="st0" d="M338.1,0.2l5.2,14.9h-6.6l-0.9-2.5H331l-0.9,2.5h-6.6l5.2-14.9H338.1z M332.2,9.1h2.4l-1.2-3.6h0L332.2,9.1z"/>
<path class="st0" d="M350.1,0.2l1.7,6.3h0l1.7-6.3h6.6L355,15.1h-6.4l-5.1-14.9H350.1z"/>
<path class="st0" d="M374.1,0.2V4h-5.8v1.8h4v3.7h-4v1.8h5.8v3.7h-12.4V0.2H374.1z"/>
<path class="st0" d="M387.4,0.2l3.4,5h0v-5h6.6v15h-5l-3.2-4.6h0v4.5h-6.6V0.2H387.4z"/>
<path class="st0" d="M415.1,7.7c0,4.3-3.3,7.7-7.7,7.7c-4.3,0-7.6-3.4-7.6-7.7c0-4.2,3.3-7.7,7.6-7.7C411.8,0,415.1,3.4,415.1,7.7z
	 M407.5,8.8c0.8,0,1.5-0.6,1.5-1.6c0-0.9-0.6-1.6-1.5-1.6S406,6.4,406,7.3C406,8.2,406.7,8.8,407.5,8.8z"/>
<path class="st0" d="M436.3,0.2v6.6H433v8.3h-6.6V6.8h-3.3V0.2H436.3z"/>
<path class="st0" d="M447.9,0.2c3.5,0,5.4,2,5.4,4.5c0,1.4-0.6,2.5-1.7,3.3c1.6,1.8,2.6,4.3,2.9,7.1h-6.8c-0.3-3.9-1.1-5.5-2.9-5.5
	h0v5.5h-6.6V0.2H447.9z M444.7,6.2h0.2c1.2,0,1.8-0.4,1.8-1.4c0-0.9-0.5-1.5-1.5-1.5h-0.4V6.2z"/>
<path class="st0" d="M469.2,0.2l5.2,14.9h-6.6l-0.9-2.5h-4.8l-0.9,2.5h-6.6l5.2-14.9H469.2z M463.3,9.1h2.4l-1.2-3.6h0L463.3,9.1z"
	/>
<path class="st0" d="M489.7,1.6L487,6.8c-0.8-0.3-1.7-0.4-2.7-0.4c-1.4,0-2.1,0.4-2.1,1.1s0.8,1.2,2.3,1.2c0.9,0,1.8-0.2,2.5-0.5
	l2.8,5.6c-1.5,0.9-4,1.5-6,1.5c-5.2,0-8.3-3.5-8.3-7.6c0-4.7,3.7-7.8,8.3-7.8C485.9,0,488.3,0.7,489.7,1.6z"/>
<path class="st0" d="M503.8,0.2V4h-5.8v1.8h4v3.7h-4v1.8h5.8v3.7h-12.4V0.2H503.8z"/>
</svg>
