<?xml version="1.0" encoding="utf-8"?>
<!-- Generator: Adobe Illustrator 24.3.0, SVG Export Plug-In . SVG Version: 6.00 Build 0)  -->
<svg version="1.1" id="Layer_1" xmlns="http://www.w3.org/2000/svg" xmlns:xlink="http://www.w3.org/1999/xlink" x="0px" y="0px"
	 viewBox="0 0 156.6 22" style="enable-background:new 0 0 156.6 22;" xml:space="preserve">
<style type="text/css">
	.st0{fill:#42210B;}
</style>
<path class="st0" d="M8.4,1.3l2.2,7l2.4-7h6l2.5,7l2.1-7H32l-6.5,19.4h-6.3L16,12.4l-2.8,8.3H6.8L0,1.3H8.4z"/>
<path class="st0" d="M49.9,1.3v4.9h-7.5v2.4h5.2v4.9h-5.2v2.4h7.5v4.9h-16V1.3H49.9z"/>
<path class="st0" d="M61.1,1.3v14.5h7.5v4.9H52.5V1.3H61.1z"/>
<path class="st0" d="M88.7,3.1l-3.6,6.8c-1.1-0.3-2.3-0.5-3.5-0.5c-1.8,0-2.8,0.5-2.8,1.5s1,1.5,2.9,1.5c1.1,0,2.3-0.2,3.3-0.7
	l3.6,7.3c-2.4,1.3-5.1,2-7.8,2C74,21,70,16.5,70,11.1C70.1,5,74.9,1,80.9,1C83.6,1,86.3,1.7,88.7,3.1z"/>
<path class="st0" d="M110.1,11c0.6,5.5-3.5,10.4-9,10.9c-5.5,0.6-10.4-3.5-10.9-9c-0.1-0.7-0.1-1.3,0-2c-0.6-5.5,3.5-10.4,9-10.9
	c5.5-0.6,10.4,3.5,10.9,9C110.2,9.7,110.2,10.3,110.1,11z M100.2,12.5c1,0,1.9-0.8,1.9-1.8c0-0.1,0-0.1,0-0.2c0.1-1-0.7-1.9-1.7-2
	c-0.1,0-0.1,0-0.2,0c-1.1,0-1.9,0.9-1.9,1.9c0,0,0,0,0,0.1c-0.1,1,0.7,1.9,1.7,2C100.1,12.5,100.1,12.5,100.2,12.5z"/>
<path class="st0" d="M121.5,1.3l3.5,4l3.5-4h8.3v19.4h-8.6V11l-3.3,3.7l-3.2-3.7v9.7h-8.6V1.3H121.5z"/>
<path class="st0" d="M156.6,1.3v4.9h-7.5v2.4h5.2v4.9h-5.2v2.4h7.5v4.9h-16.1V1.3H156.6z"/>
</svg>
